<?xml version="1.0" encoding="UTF-8" standalone="no"?>
<!-- Created with Inkscape (http://www.inkscape.org/) -->

<svg
   width="210mm"
   height="297mm"
   viewBox="0 0 210 297"
   version="1.1"
   id="svg5"
   inkscape:version="1.1.2 (0a00cf5339, 2022-02-04)"
   sodipodi:docname="QC_noise.svg"
   xmlns:inkscape="http://www.inkscape.org/namespaces/inkscape"
   xmlns:sodipodi="http://sodipodi.sourceforge.net/DTD/sodipodi-0.dtd"
   xmlns="http://www.w3.org/2000/svg"
   xmlns:svg="http://www.w3.org/2000/svg">
  <sodipodi:namedview
     id="namedview7"
     pagecolor="#ffffff"
     bordercolor="#666666"
     borderopacity="1.0"
     inkscape:pageshadow="2"
     inkscape:pageopacity="0.0"
     inkscape:pagecheckerboard="0"
     inkscape:document-units="mm"
     showgrid="false"
     objecttolerance="20"
     inkscape:snap-tangential="true"
     inkscape:zoom="1.8220149"
     inkscape:cx="453.61869"
     inkscape:cy="328.20808"
     inkscape:window-width="2560"
     inkscape:window-height="1403"
     inkscape:window-x="2560"
     inkscape:window-y="0"
     inkscape:window-maximized="1"
     inkscape:current-layer="layer2" />
  <defs
     id="defs2">
    <marker
       id="ExperimentalArrow"
       refX="5.0"
       refY="3.0"
       orient="auto-start-reverse"
       inkscape:stockid="ExperimentalArrow"
       inkscape:isstock="true">
      <path
         style="fill:context-stroke"
         d="m 10,3 -10,3 0,-6 z"
         id="path17232" />
    </marker>
    <marker
       style="overflow:visible"
       id="EmptyTriangleOutL"
       refX="0.0"
       refY="0.0"
       orient="auto"
       inkscape:stockid="EmptyTriangleOutL"
       inkscape:isstock="true">
      <path
         transform="scale(0.8) translate(-6,0)"
         style="fill-rule:evenodd;fill:context-fill;stroke:context-stroke;stroke-width:1.0pt"
         d="M 5.77,0.0 L -2.88,5.0 L -2.88,-5.0 L 5.77,0.0 z "
         id="path17139" />
    </marker>
    <marker
       style="overflow:visible"
       id="TriangleOutL"
       refX="0.0"
       refY="0.0"
       orient="auto"
       inkscape:stockid="TriangleOutL"
       inkscape:isstock="true">
      <path
         transform="scale(0.8)"
         style="fill-rule:evenodd;fill:context-stroke;stroke:context-stroke;stroke-width:1.0pt"
         d="M 5.77,0.0 L -2.88,5.0 L -2.88,-5.0 L 5.77,0.0 z "
         id="path17121" />
    </marker>
    <marker
       style="overflow:visible;"
       id="Arrow1Lend"
       refX="0.0"
       refY="0.0"
       orient="auto"
       inkscape:stockid="Arrow1Lend"
       inkscape:isstock="true">
      <path
         transform="scale(0.8) rotate(180) translate(12.5,0)"
         style="fill-rule:evenodd;fill:context-stroke;stroke:context-stroke;stroke-width:1.0pt;"
         d="M 0.0,0.0 L 5.0,-5.0 L -12.5,0.0 L 5.0,5.0 L 0.0,0.0 z "
         id="path16982" />
    </marker>
    <marker
       id="ExperimentalArrow-6"
       refX="5"
       refY="3"
       orient="auto-start-reverse"
       inkscape:stockid="ExperimentalArrow"
       inkscape:isstock="true">
      <path
         style="fill:context-stroke"
         d="M 10,3 0,6 V 0 Z"
         id="path17232-7" />
    </marker>
    <marker
       id="ExperimentalArrow-6-3"
       refX="5"
       refY="3"
       orient="auto-start-reverse"
       inkscape:stockid="ExperimentalArrow"
       inkscape:isstock="true">
      <path
         style="fill:context-stroke"
         d="M 10,3 0,6 V 0 Z"
         id="path17232-7-5" />
    </marker>
    <marker
       id="ExperimentalArrow-6-2"
       refX="5"
       refY="3"
       orient="auto-start-reverse"
       inkscape:stockid="ExperimentalArrow"
       inkscape:isstock="true">
      <path
         style="fill:context-stroke"
         d="M 10,3 0,6 V 0 Z"
         id="path17232-7-9" />
    </marker>
    <marker
       id="ExperimentalArrow-6-27"
       refX="5"
       refY="3"
       orient="auto-start-reverse"
       inkscape:stockid="ExperimentalArrow"
       inkscape:isstock="true">
      <path
         style="fill:context-stroke"
         d="M 10,3 0,6 V 0 Z"
         id="path17232-7-0" />
    </marker>
    <marker
       id="ExperimentalArrow-6-36"
       refX="5"
       refY="3"
       orient="auto-start-reverse"
       inkscape:stockid="ExperimentalArrow"
       inkscape:isstock="true">
      <path
         style="fill:context-stroke"
         d="M 10,3 0,6 V 0 Z"
         id="path17232-7-06" />
    </marker>
    <marker
       id="ExperimentalArrow-6-6"
       refX="5"
       refY="3"
       orient="auto-start-reverse"
       inkscape:stockid="ExperimentalArrow"
       inkscape:isstock="true">
      <path
         style="fill:context-stroke"
         d="M 10,3 0,6 V 0 Z"
         id="path17232-7-1" />
    </marker>
  </defs>
  <g
     inkscape:label="QC"
     inkscape:groupmode="layer"
     id="layer1"
     style="display:inline">
    <g
       id="g16851"
       transform="translate(35.168758,19.439208)">
      <ellipse
         style="fill:#275e85;fill-opacity:1;stroke:#275e85;stroke-width:0.698677;stroke-linecap:round;stroke-linejoin:round;stroke-miterlimit:4;stroke-dasharray:none;stroke-opacity:1"
         id="path846-3"
         cx="69.734161"
         cy="95.683372"
         rx="29.884052"
         ry="7.4316616" />
      <rect
         style="fill:#275e85;fill-opacity:1;stroke:#275e85;stroke-width:0.495998;stroke-linecap:round;stroke-linejoin:round;stroke-miterlimit:4;stroke-dasharray:none;stroke-dashoffset:0;stroke-opacity:1"
         id="rect872"
         width="60.002316"
         height="34.685135"
         x="39.79586"
         y="60.824505" />
      <ellipse
         style="fill:#80abca;fill-opacity:1;stroke:#80abca;stroke-width:0.7;stroke-linecap:round;stroke-linejoin:round;stroke-miterlimit:4;stroke-dasharray:none;stroke-opacity:1"
         id="path846"
         cx="69.765472"
         cy="60.056126"
         rx="30"
         ry="7.4310002" />
      <text
         xml:space="preserve"
         style="font-style:normal;font-variant:normal;font-weight:normal;font-stretch:normal;font-size:16.9333px;line-height:1.25;font-family:sans-serif;-inkscape-font-specification:sans-serif;fill:#80abca;fill-opacity:1;stroke:none;stroke-width:0.264583"
         x="56.686058"
         y="89.23278"
         id="text8186"><tspan
           sodipodi:role="line"
           id="tspan8184"
           style="font-style:normal;font-variant:normal;font-weight:normal;font-stretch:normal;font-size:16.9333px;font-family:sans-serif;-inkscape-font-specification:sans-serif;fill:#80abca;fill-opacity:1;stroke-width:0.264583"
           x="56.686058"
           y="89.23278">QC</tspan></text>
    </g>
  </g>
  <g
     inkscape:groupmode="layer"
     id="layer2"
     inkscape:label="Error bubble"
     style="display:inline">
    <path
       style="fill:none;stroke:#000000;stroke-width:0.565;stroke-linecap:butt;stroke-linejoin:miter;stroke-miterlimit:4;stroke-dasharray:none;stroke-opacity:1;marker-end:url(#ExperimentalArrow)"
       d="m 37.061476,75.476596 c 2.909896,-3.014056 5.089039,-2.703811 7.519284,-1.83715 1.045917,0.372989 2.005581,2.659928 2.005581,2.659928 0,0 1.01066,2.166779 2.00558,2.659928 2.332546,1.156165 5.23978,-0.448326 7.810007,-0.0343 2.0126,0.324204 2.239627,0.07605 5.797786,1.945945"
       id="path16897"
       sodipodi:nodetypes="cacaac" />
    <path
       style="display:inline;fill:none;stroke:#000000;stroke-width:0.565;stroke-linecap:butt;stroke-linejoin:miter;stroke-miterlimit:4;stroke-dasharray:none;stroke-opacity:1;marker-end:url(#ExperimentalArrow-6)"
       d="m 33.422357,109.4463 c 1.589317,-3.87635 3.728752,-4.39378 6.307218,-4.48706 1.109708,-0.0401 2.846917,1.72992 2.846917,1.72992 0,0 1.740165,1.63957 2.846916,1.72992 2.594729,0.21183 4.702729,-2.35385 7.243906,-2.91945 1.989855,-0.44289 2.109045,-0.75739 6.106426,-0.33555"
       id="path16897-5"
       sodipodi:nodetypes="cacaac" />
    <path
       style="display:inline;fill:none;stroke:#000000;stroke-width:0.565;stroke-linecap:butt;stroke-linejoin:miter;stroke-miterlimit:4;stroke-dasharray:none;stroke-opacity:1;marker-end:url(#ExperimentalArrow-6-3)"
       d="m 66.991516,44.41981 c 4.159277,-0.502442 5.654183,1.11316 6.992839,3.318878 0.576125,0.949286 -0.122252,3.329058 -0.122252,3.329058 0,0 -0.582999,2.318723 -0.122253,3.329057 1.080198,2.368683 4.348062,2.958149 6.080905,4.901018 1.35689,1.521354 1.689595,1.472067 3.270346,5.167771"
       id="path16897-5-6"
       sodipodi:nodetypes="cacaac" />
    <path
       style="display:inline;fill:none;stroke:#000000;stroke-width:0.599289;stroke-linecap:butt;stroke-linejoin:miter;stroke-miterlimit:4;stroke-dasharray:none;stroke-opacity:1;marker-end:url(#ExperimentalArrow-6-2)"
       d="m 124.30493,39.19284 c 3.44328,2.961232 2.92241,4.954312 1.71295,7.131523 -0.52052,0.937014 -3.34583,1.626715 -3.34583,1.626715 0,0 -2.68369,0.747472 -3.34585,1.626703 -1.55239,2.061314 0.18939,4.896827 -0.48303,7.243382 -0.52654,1.83746 -0.2422,2.06964 -2.73854,5.204776"
       id="path16897-5-1"
       sodipodi:nodetypes="cacaac" />
    <path
       style="display:inline;fill:none;stroke:#000000;stroke-width:0.565;stroke-linecap:butt;stroke-linejoin:miter;stroke-miterlimit:4;stroke-dasharray:none;stroke-opacity:1;marker-end:url(#ExperimentalArrow-6-36)"
       d="m 167.52397,66.287265 c 0.10967,4.188074 -1.63917,5.524677 -3.96084,6.650299 -0.99919,0.484444 -3.30287,-0.434309 -3.30287,-0.434309 0,0 -2.25373,-0.798149 -3.30286,-0.434309 -2.45965,0.853012 -3.35336,4.051084 -5.45036,5.593839 -1.64205,1.208041 -1.62422,1.543906 -5.45203,2.77065"
       id="path16897-5-2"
       sodipodi:nodetypes="cacaac" />
    <path
       style="display:inline;fill:none;stroke:#000000;stroke-width:0.565;stroke-linecap:butt;stroke-linejoin:miter;stroke-miterlimit:4;stroke-dasharray:none;stroke-opacity:1;marker-end:url(#ExperimentalArrow-6-6)"
       d="m 174.83257,105.5638 c -2.45338,3.39602 -4.6545,3.39773 -7.18303,2.88422 -1.08821,-0.22106 -2.3623,-2.34886 -2.3623,-2.34886 0,0 -1.30752,-2.00168 -2.36229,-2.34886 -2.47286,-0.81393 -5.12336,1.18637 -7.72633,1.14076 -2.03823,-0.0357 -2.22781,0.24206 -6.01505,-1.10465"
       id="path16897-5-8"
       sodipodi:nodetypes="cacaac" />
    <text
       xml:space="preserve"
       style="font-style:normal;font-weight:normal;font-size:10.5833px;line-height:1.25;font-family:sans-serif;fill:#000000;fill-opacity:1;stroke:none;stroke-width:0.264583"
       x="134.29402"
       y="58.763771"
       id="text25003"><tspan
         sodipodi:role="line"
         style="stroke-width:0.264583"
         x="134.29402"
         y="58.763771"
         id="tspan25005">Noise</tspan></text>
  </g>
</svg>
